<svg width="1440" height="1024" viewBox="0 0 1440 1024" fill="none" xmlns="http://www.w3.org/2000/svg">
<g filter="url(#filter0_d_17_15)">
<path d="M463.125 734C460.125 734 457.708 733.729 455.875 733.188C454.042 732.646 452.625 731.75 451.625 730.5C450.625 729.25 449.958 727.604 449.625 725.562C449.292 723.521 449.125 721 449.125 718V716H455.125V718C455.125 720.5 455.26 722.49 455.531 723.969C455.802 725.427 456.25 726.542 456.875 727.312C457.5 728.083 458.323 728.583 459.344 728.812C460.365 729.021 461.625 729.125 463.125 729.125H477.125C479.125 729.125 480.771 728.948 482.062 728.594C483.354 728.219 484.375 727.656 485.125 726.906C485.875 726.156 486.396 725.208 486.688 724.062C486.979 722.917 487.125 721.562 487.125 720V686H493.125V720C493.125 722.5 492.854 724.635 492.312 726.406C491.771 728.177 490.875 729.625 489.625 730.75C488.375 731.875 486.729 732.698 484.688 733.219C482.646 733.74 480.125 734 477.125 734H463.125ZM542.781 685C546.448 685 549.531 685.229 552.031 685.688C554.552 686.125 556.625 686.802 558.25 687.719C559.875 688.615 561.125 689.75 562 691.125C562.875 692.5 563.51 694.115 563.906 695.969C564.323 697.823 564.562 699.917 564.625 702.25C564.708 704.583 564.75 707.167 564.75 710C564.75 712.833 564.708 715.417 564.625 717.75C564.562 720.083 564.323 722.177 563.906 724.031C563.51 725.885 562.875 727.5 562 728.875C561.125 730.25 559.875 731.396 558.25 732.312C556.625 733.208 554.552 733.875 552.031 734.312C549.531 734.771 546.448 735 542.781 735H524.719C521.052 735 517.958 734.771 515.438 734.312C512.938 733.875 510.875 733.208 509.25 732.312C507.625 731.396 506.365 730.25 505.469 728.875C504.594 727.5 503.948 725.885 503.531 724.031C503.135 722.177 502.906 720.083 502.844 717.75C502.781 715.417 502.75 712.833 502.75 710C502.75 707.167 502.781 704.583 502.844 702.25C502.906 699.917 503.135 697.823 503.531 695.969C503.948 694.115 504.594 692.5 505.469 691.125C506.365 689.75 507.625 688.615 509.25 687.719C510.875 686.802 512.938 686.125 515.438 685.688C517.958 685.229 521.052 685 524.719 685H542.781ZM542.781 730C545.427 730 547.656 729.927 549.469 729.781C551.302 729.615 552.812 729.292 554 728.812C555.188 728.333 556.104 727.646 556.75 726.75C557.396 725.854 557.865 724.667 558.156 723.188C558.448 721.708 558.615 719.896 558.656 717.75C558.719 715.583 558.75 713 558.75 710C558.75 707 558.719 704.427 558.656 702.281C558.615 700.115 558.448 698.292 558.156 696.812C557.865 695.333 557.396 694.146 556.75 693.25C556.104 692.354 555.188 691.667 554 691.188C552.833 690.708 551.333 690.396 549.5 690.25C547.688 690.083 545.448 690 542.781 690H524.719C522.052 690 519.802 690.083 517.969 690.25C516.156 690.396 514.656 690.708 513.469 691.188C512.281 691.667 511.365 692.354 510.719 693.25C510.073 694.146 509.604 695.333 509.312 696.812C509.021 698.292 508.854 700.115 508.812 702.281C508.771 704.427 508.75 707 508.75 710C508.75 713 508.771 715.583 508.812 717.75C508.875 719.896 509.052 721.708 509.344 723.188C509.635 724.667 510.094 725.854 510.719 726.75C511.365 727.646 512.281 728.333 513.469 728.812C514.656 729.292 516.156 729.615 517.969 729.781C519.802 729.927 522.052 730 524.719 730H542.781ZM624.75 686H630.75V734H624.75V712H580.75V734H574.75V686H580.75V707H624.75V686ZM648.75 734H642.75V686H653.281L697.281 728V686H703.281V734H695.281L648.75 691V734ZM745.562 707C748.854 707 751.677 707.135 754.031 707.406C756.385 707.677 758.365 708.083 759.969 708.625C761.594 709.146 762.885 709.802 763.844 710.594C764.802 711.385 765.542 712.292 766.062 713.312C766.583 714.312 766.917 715.438 767.062 716.688C767.229 717.938 767.312 719.292 767.312 720.75C767.312 722.208 767.177 723.583 766.906 724.875C766.656 726.146 766.198 727.312 765.531 728.375C764.865 729.438 763.958 730.385 762.812 731.219C761.667 732.052 760.208 732.76 758.438 733.344C756.667 733.927 754.531 734.365 752.031 734.656C749.552 734.969 746.646 735.125 743.312 735.125H735.312C732.312 735.125 729.688 735.01 727.438 734.781C725.188 734.552 723.25 734.208 721.625 733.75C720 733.271 718.656 732.677 717.594 731.969C716.531 731.24 715.677 730.396 715.031 729.438C714.406 728.458 713.969 727.354 713.719 726.125C713.469 724.875 713.344 723.5 713.344 722H719.344C719.344 723.875 719.615 725.344 720.156 726.406C720.698 727.469 721.594 728.271 722.844 728.812C724.094 729.333 725.729 729.667 727.75 729.812C729.792 729.938 732.312 730 735.312 730H743.312C746.812 730 749.719 729.833 752.031 729.5C754.344 729.167 756.188 728.635 757.562 727.906C758.938 727.177 759.906 726.229 760.469 725.062C761.031 723.875 761.312 722.438 761.312 720.75C761.312 719.062 761.115 717.656 760.719 716.531C760.344 715.406 759.583 714.51 758.438 713.844C757.312 713.177 755.719 712.708 753.656 712.438C751.594 712.146 748.896 712 745.562 712H737.312C733.646 712 730.5 711.865 727.875 711.594C725.271 711.323 723.083 710.938 721.312 710.438C719.542 709.917 718.125 709.281 717.062 708.531C716 707.76 715.188 706.885 714.625 705.906C714.083 704.927 713.729 703.844 713.562 702.656C713.396 701.448 713.312 700.146 713.312 698.75C713.312 697.292 713.438 695.938 713.688 694.688C713.958 693.438 714.448 692.312 715.156 691.312C715.865 690.292 716.833 689.385 718.062 688.594C719.292 687.802 720.865 687.146 722.781 686.625C724.719 686.083 727.042 685.677 729.75 685.406C732.458 685.135 735.646 685 739.312 685H745.312C748.312 685 750.938 685.115 753.188 685.344C755.438 685.552 757.375 685.896 759 686.375C760.625 686.833 761.969 687.417 763.031 688.125C764.115 688.812 764.969 689.646 765.594 690.625C766.24 691.583 766.688 692.677 766.938 693.906C767.188 695.135 767.312 696.5 767.312 698H761.312C761.312 696.125 761.042 694.656 760.5 693.594C759.958 692.531 759.062 691.74 757.812 691.219C756.562 690.677 754.917 690.344 752.875 690.219C750.833 690.073 748.312 690 745.312 690H739.312C735.312 690 732.021 690.146 729.438 690.438C726.854 690.708 724.812 691.177 723.312 691.844C721.812 692.51 720.771 693.406 720.188 694.531C719.604 695.656 719.312 697.062 719.312 698.75C719.312 699.792 719.385 700.719 719.531 701.531C719.677 702.344 719.969 703.062 720.406 703.688C720.865 704.292 721.5 704.802 722.312 705.219C723.125 705.635 724.198 705.979 725.531 706.25C726.865 706.521 728.49 706.719 730.406 706.844C732.344 706.948 734.646 707 737.312 707H745.562ZM829.312 686V691H805.312V734H799.312V691H775.312V686H829.312ZM877.344 685C881.01 685 884.094 685.229 886.594 685.688C889.115 686.125 891.188 686.802 892.812 687.719C894.438 688.615 895.688 689.75 896.562 691.125C897.438 692.5 898.073 694.115 898.469 695.969C898.885 697.823 899.125 699.917 899.188 702.25C899.271 704.583 899.312 707.167 899.312 710C899.312 712.833 899.271 715.417 899.188 717.75C899.125 720.083 898.885 722.177 898.469 724.031C898.073 725.885 897.438 727.5 896.562 728.875C895.688 730.25 894.438 731.396 892.812 732.312C891.188 733.208 889.115 733.875 886.594 734.312C884.094 734.771 881.01 735 877.344 735H859.281C855.615 735 852.521 734.771 850 734.312C847.5 733.875 845.438 733.208 843.812 732.312C842.188 731.396 840.927 730.25 840.031 728.875C839.156 727.5 838.51 725.885 838.094 724.031C837.698 722.177 837.469 720.083 837.406 717.75C837.344 715.417 837.312 712.833 837.312 710C837.312 707.167 837.344 704.583 837.406 702.25C837.469 699.917 837.698 697.823 838.094 695.969C838.51 694.115 839.156 692.5 840.031 691.125C840.927 689.75 842.188 688.615 843.812 687.719C845.438 686.802 847.5 686.125 850 685.688C852.521 685.229 855.615 685 859.281 685H877.344ZM877.344 730C879.99 730 882.219 729.927 884.031 729.781C885.865 729.615 887.375 729.292 888.562 728.812C889.75 728.333 890.667 727.646 891.312 726.75C891.958 725.854 892.427 724.667 892.719 723.188C893.01 721.708 893.177 719.896 893.219 717.75C893.281 715.583 893.312 713 893.312 710C893.312 707 893.281 704.427 893.219 702.281C893.177 700.115 893.01 698.292 892.719 696.812C892.427 695.333 891.958 694.146 891.312 693.25C890.667 692.354 889.75 691.667 888.562 691.188C887.396 690.708 885.896 690.396 884.062 690.25C882.25 690.083 880.01 690 877.344 690H859.281C856.615 690 854.365 690.083 852.531 690.25C850.719 690.396 849.219 690.708 848.031 691.188C846.844 691.667 845.927 692.354 845.281 693.25C844.635 694.146 844.167 695.333 843.875 696.812C843.583 698.292 843.417 700.115 843.375 702.281C843.333 704.427 843.312 707 843.312 710C843.312 713 843.333 715.583 843.375 717.75C843.438 719.896 843.615 721.708 843.906 723.188C844.198 724.667 844.656 725.854 845.281 726.75C845.927 727.646 846.844 728.333 848.031 728.812C849.219 729.292 850.719 729.615 852.531 729.781C854.365 729.927 856.615 730 859.281 730H877.344ZM915.312 734H909.312V686H919.844L963.844 728V686H969.844V734H961.844L915.312 691V734ZM981.875 686H987.875V734H981.875V686ZM596.031 776C599.698 776 602.781 776.229 605.281 776.688C607.802 777.125 609.875 777.802 611.5 778.719C613.125 779.615 614.375 780.75 615.25 782.125C616.125 783.5 616.76 785.115 617.156 786.969C617.573 788.823 617.812 790.917 617.875 793.25C617.958 795.583 618 798.167 618 801C618 803.833 617.958 806.417 617.875 808.75C617.812 811.083 617.573 813.177 617.156 815.031C616.76 816.885 616.125 818.5 615.25 819.875C614.375 821.25 613.125 822.396 611.5 823.312C609.875 824.208 607.802 824.875 605.281 825.312C602.781 825.771 599.698 826 596.031 826H577.969C574.302 826 571.208 825.771 568.688 825.312C566.188 824.875 564.125 824.208 562.5 823.312C560.875 822.396 559.615 821.25 558.719 819.875C557.844 818.5 557.198 816.885 556.781 815.031C556.385 813.177 556.156 811.083 556.094 808.75C556.031 806.417 556 803.833 556 801C556 798.167 556.031 795.583 556.094 793.25C556.156 790.917 556.385 788.823 556.781 786.969C557.198 785.115 557.844 783.5 558.719 782.125C559.615 780.75 560.875 779.615 562.5 778.719C564.125 777.802 566.188 777.125 568.688 776.688C571.208 776.229 574.302 776 577.969 776H596.031ZM596.031 821C598.677 821 600.906 820.927 602.719 820.781C604.552 820.615 606.062 820.292 607.25 819.812C608.438 819.333 609.354 818.646 610 817.75C610.646 816.854 611.115 815.667 611.406 814.188C611.698 812.708 611.865 810.896 611.906 808.75C611.969 806.583 612 804 612 801C612 798 611.969 795.427 611.906 793.281C611.865 791.115 611.698 789.292 611.406 787.812C611.115 786.333 610.646 785.146 610 784.25C609.354 783.354 608.438 782.667 607.25 782.188C606.083 781.708 604.583 781.396 602.75 781.25C600.938 781.083 598.698 781 596.031 781H577.969C575.302 781 573.052 781.083 571.219 781.25C569.406 781.396 567.906 781.708 566.719 782.188C565.531 782.667 564.615 783.354 563.969 784.25C563.323 785.146 562.854 786.333 562.562 787.812C562.271 789.292 562.104 791.115 562.062 793.281C562.021 795.427 562 798 562 801C562 804 562.021 806.583 562.062 808.75C562.125 810.896 562.302 812.708 562.594 814.188C562.885 815.667 563.344 816.854 563.969 817.75C564.615 818.646 565.531 819.333 566.719 819.812C567.906 820.292 569.406 820.615 571.219 820.781C573.052 820.927 575.302 821 577.969 821H596.031ZM673 777H682L648 800.5L683 825H674L642 803H634V825H628V777H634V798H642L673 777ZM738 814H700L694 825H687L715 777H723L751 825H744L738 814ZM735 809L719 781L703 809H735ZM759 777H795.062C798.042 777 800.552 777.135 802.594 777.406C804.656 777.656 806.354 778.042 807.688 778.562C809.021 779.083 810.042 779.729 810.75 780.5C811.479 781.271 812.01 782.177 812.344 783.219C812.677 784.26 812.865 785.427 812.906 786.719C812.969 788.01 813 789.438 813 791C813 792.625 812.958 794.125 812.875 795.5C812.812 796.875 812.573 798.125 812.156 799.25C811.76 800.354 811.115 801.333 810.219 802.188C809.344 803.021 808.083 803.719 806.438 804.281C804.812 804.844 802.74 805.271 800.219 805.562C797.719 805.854 794.635 806 790.969 806H765V825H759V777ZM765 801H790.969C793.635 801 795.875 800.958 797.688 800.875C799.521 800.771 801.031 800.594 802.219 800.344C803.406 800.094 804.323 799.74 804.969 799.281C805.615 798.823 806.083 798.219 806.375 797.469C806.688 796.719 806.865 795.823 806.906 794.781C806.969 793.719 807 792.458 807 791C807 789.646 806.969 788.479 806.906 787.5C806.865 786.521 806.688 785.698 806.375 785.031C806.083 784.365 805.615 783.833 804.969 783.438C804.323 783.042 803.406 782.74 802.219 782.531C801.031 782.302 799.521 782.156 797.688 782.094C795.875 782.031 793.635 782 790.969 782H765V801ZM821 777H827V825H821V777ZM886 814H848L842 825H835L863 777H871L899 825H892L886 814ZM883 809L867 781L851 809H883Z" fill="white"/>
<g clip-path="url(#clip0_17_15)">
<path fill-rule="evenodd" clip-rule="evenodd" d="M731.557 420.207C725.762 408.339 718.038 397.854 711.135 386.54C703.408 374.12 696.233 361.15 692.923 345.418C691.818 339.623 695.408 315.341 684.093 332.448C683.266 333.55 682.436 334.93 681.608 336.035C679.398 340.175 677.468 344.038 675.813 347.903C668.638 365.287 668.361 386.812 674.986 404.752C676.858 409.594 679.071 414.297 681.608 418.827C689.888 433.179 700.925 445.871 711.135 459.666C719.137 470.706 726.59 482.851 731.005 497.198C731.282 497.75 731.557 498.58 731.557 499.133C732.94 504.928 732.662 510.173 734.317 515.137C734.595 516.242 736.527 514.313 736.8 513.48C742.042 495.545 742.87 473.466 741.77 454.979C740.665 441.734 736.8 430.694 731.557 420.207Z" fill="white"/>
<path fill-rule="evenodd" clip-rule="evenodd" d="M711.135 498.583C701.753 488.373 691.265 478.161 681.608 467.401C675.284 460.544 669.56 453.157 664.498 445.321C651.804 424.899 652.909 407.239 654.841 383.505C654.841 382.125 661.186 350.663 657.876 351.768C645.456 356.185 633.039 388.747 630.279 399.787C619.794 443.944 632.761 481.748 663.671 512.658C670.846 519.832 676.641 526.18 681.611 531.975C696.235 549.079 702.86 563.154 711.138 587.441C712.795 592.684 714.448 598.201 716.383 604.551C716.933 605.656 718.038 605.928 718.038 605.928C720.357 603.88 722.316 601.456 723.833 598.759C727.145 592.684 729.627 587.166 731.56 581.644C739.287 560.947 737.907 544.117 731.56 529.212C726.865 518.172 719.418 508.237 711.135 498.583ZM615.652 348.733C613.994 347.908 612.617 347.63 610.959 348.18C608.474 349.01 606.269 352.045 604.334 354.253C601.024 358.945 593.022 364.737 596.335 368.05C597.99 369.982 604.612 372.19 610.959 373.842C615.652 375.225 620.344 376.052 623.654 376.052C624.759 375.78 625.589 375.78 626.414 375.5C627.242 374.95 625.864 368.602 623.654 362.255C621.172 356.183 618.137 349.835 615.652 348.733ZM747.287 421.587C750.047 415.792 751.705 408.894 752.529 401.992C753.082 397.302 753.36 392.332 752.529 387.642C752.529 386.815 752.257 385.987 752.257 385.157C748.664 366.945 741.492 349.558 737.63 332.451C734.317 318.376 745.077 305.684 740.937 291.881C738.455 284.154 734.037 278.361 732.66 271.462C732.387 268.977 732.937 266.494 734.317 265.667C735.975 265.114 737.077 266.769 737.63 267.319C741.217 272.011 743.147 276.981 746.46 280.291C749.767 283.601 748.389 260.147 748.112 259.317C747.287 254.349 746.46 249.107 743.972 244.692C741.217 239.45 736.525 236.69 731.555 235.86C722.45 234.757 712.79 240.83 711.685 251.867C711.134 256.02 711.416 260.241 712.513 264.284C713.89 270.079 717.205 274.771 718.86 279.739C720.792 285.256 721.345 293.261 719.687 299.056C717.477 306.783 713.34 313.406 711.685 320.303C711.41 321.131 711.133 321.961 711.133 322.788C710.03 328.305 710.03 334.103 710.858 338.793C710.858 339.343 710.858 339.898 711.133 340.173C712.513 348.172 714.442 355.902 717.205 363.352C721.067 373.565 727.142 382.947 731.555 392.879C732.385 394.259 732.937 395.914 733.485 397.297C737.35 406.954 738.732 416.061 741.767 424.894C743.15 429.039 746.735 423.241 747.287 421.587ZM796.131 324.171C789.784 320.033 785.921 327.758 787.854 337.143C788.684 340.73 790.894 343.765 791.994 346.248C792.824 347.628 794.481 348.18 796.134 348.18C799.446 348.18 803.034 346.803 804.139 344.593C806.621 339.903 803.861 333.003 800.826 329.138C799.166 326.931 797.789 325.276 796.131 324.171Z" fill="white"/>
<path fill-rule="evenodd" clip-rule="evenodd" d="M813.519 222.892C807.996 220.135 802.201 217.925 796.131 215.717C782.337 210.75 767.709 207.163 752.53 204.958C745.63 203.853 738.735 203.023 731.555 202.748C727.415 202.47 723.278 202.47 719.138 202.47H711.135C701.203 202.748 691.266 203.85 681.608 205.505C661.548 208.751 642.041 214.788 623.654 223.442C619.239 225.375 615.102 227.305 610.959 229.515C539.211 268.152 490.089 344.318 490.089 431.246C490.089 518.452 539.211 594.341 610.959 632.978C615.099 635.188 619.239 637.396 623.654 639.325C642.135 647.732 661.609 653.758 681.608 657.26C687.956 658.085 694.028 658.918 700.373 659.47C707.273 660.023 710.033 656.983 711.135 652.57C711.963 648.43 711.41 643.188 711.135 638.495V637.396C709.758 618.903 696.785 596.551 681.608 575.576C662.844 549.914 640.489 525.907 631.934 513.482C629.101 509.114 626.341 504.7 623.654 500.24C618.401 491.546 614.143 482.289 610.959 472.643C606.269 456.913 605.164 440.629 605.992 420.209C606.544 406.134 611.787 400.064 605.992 388.475C603.509 383.232 601.577 378.54 597.99 375.502C595.505 373.295 592.192 374.125 589.71 374.677C585.57 375.782 580.602 386.267 579.225 390.13C577.57 393.995 573.708 400.342 576.74 401.444C579.497 402.272 607.372 397.857 603.509 404.757C558.25 487.546 583.917 530.32 610.959 563.434C615.377 568.677 619.514 573.369 623.654 578.339C635.796 592.966 646.284 606.761 647.111 622.766C647.664 631.323 647.664 636.013 636.624 631.323C632.209 629.393 627.794 627.463 623.654 625.253C619.239 623.323 615.102 621.113 610.959 618.626C546.385 581.094 502.781 511.28 502.781 431.249C502.781 351.495 546.385 281.401 610.959 243.87C615.099 241.385 619.239 239.177 623.654 237.247C641.594 228.14 661.186 221.792 681.608 218.205C691.38 216.543 701.238 215.438 711.135 214.895H719.138C723.278 214.895 727.415 214.895 731.555 215.17C738.735 215.723 745.63 216.275 752.53 217.378C767.709 219.863 782.334 223.725 796.131 228.97C802.201 231.452 807.996 233.937 813.519 236.697C885.82 271.744 935.494 345.981 935.494 431.252C935.494 460.504 931.077 486.443 920.037 511.558C897.962 562.337 859.048 589.654 813.519 607.863C807.996 610.073 802.201 612.281 796.131 614.211C782.057 619.186 767.432 623.326 752.53 627.463C752.257 627.463 751.977 627.736 751.705 627.736C748.665 628.561 747.012 629.113 744.805 643.465C742.595 657.54 743.422 659.19 752.532 657.818C753.085 657.818 753.362 657.54 753.637 657.54C768.264 655.33 782.612 651.745 796.134 646.775C802.204 644.565 807.999 642.358 813.521 639.875C892.722 603.721 947.911 523.7 947.911 431.249C947.909 338.798 892.722 259.044 813.519 222.892Z" fill="white"/>
<path fill-rule="evenodd" clip-rule="evenodd" d="M840.838 400.614C834.216 404.202 824.003 401.167 817.108 406.407C814.626 408.339 815.179 416.894 816.278 419.377C818.488 423.516 822.906 424.896 825.388 427.379C828.701 431.244 829.806 436.486 833.393 439.521C835.876 441.731 846.916 446.696 849.676 442.004C858.78 426.826 862.368 432.626 873.127 421.584C878.922 416.064 870.373 382.4 861.82 377.155C855.193 372.74 846.358 372.74 841.671 367.22C836.978 362.25 838.083 354.25 835.876 348.73C833.116 341.833 830.906 335.211 827.598 329.138C824.006 321.686 819.041 316.443 813.524 312.028C807.729 307.061 801.379 303.199 796.136 298.231C793.654 295.746 791.444 293.261 789.514 290.226C783.439 279.741 790.066 257.939 781.509 251.317C775.439 246.349 766.057 254.352 764.399 260.149C761.087 272.567 754.464 288.849 752.535 304.029C751.982 308.519 751.982 313.06 752.535 317.551C753.087 321.138 753.917 324.451 755.57 327.486C759.157 335.766 764.122 343.49 767.714 350.943C769.092 353.978 769.092 357.568 768.539 360.878C765.785 372.193 761.639 372.192 756.952 381.022C755.847 383.507 755.295 386.265 756.4 388.475C764.399 404.479 779.852 408.619 796.134 408.342C799.446 408.342 802.481 408.342 805.791 407.792C806.896 407.792 808.279 407.239 808.279 406.409C808.279 396.2 807.449 399.787 801.656 393.992C799.721 392.06 798.069 390.127 797.791 388.472C796.966 386.262 796.686 384.055 796.134 381.85C795.309 377.157 794.756 372.465 793.651 368.05C792.146 362.748 790.208 357.58 787.856 352.595C784.269 345.145 779.579 338.523 777.369 330.796C773.229 314.791 778.474 308.166 794.484 311.201C795.037 311.478 795.584 311.478 796.136 311.753C798.896 312.581 800.829 314.238 802.484 315.343C806.344 318.101 809.384 320.586 811.589 323.343C812.419 324.723 812.971 325.828 813.524 326.931C814.629 328.588 815.181 329.966 815.454 331.623C817.383 337.143 818.766 342.108 819.593 347.078C820.418 351.768 820.698 355.91 820.418 360.048C819.871 366.392 817.936 372.19 817.936 377.985C817.936 390.127 831.463 377.71 835.051 377.157C841.121 376.052 845.261 388.747 844.708 392.612C844.423 396.197 843.045 399.232 840.838 400.614Z" fill="white"/>
<ellipse cx="614" cy="360.5" rx="22" ry="20.5" fill="white"/>
<ellipse cx="589.5" cy="387.5" rx="24.5" ry="19.5" fill="white"/>
</g>
<path d="M685.531 853.797C684.115 853.797 682.87 853.776 681.797 853.734C680.724 853.693 679.797 853.609 679.016 853.484C678.245 853.349 677.599 853.161 677.078 852.922C676.568 852.682 676.161 852.365 675.859 851.969C675.557 851.562 675.344 851.068 675.219 850.484C675.094 849.891 675.031 849.25 675.031 848.562C675.031 847.625 675.229 846.839 675.625 846.203C676.021 845.557 676.656 845.036 677.531 844.641C678.406 844.234 679.542 843.943 680.938 843.766C682.333 843.589 684.031 843.5 686.031 843.5C688.01 843.5 689.641 843.604 690.922 843.812C692.214 844.021 693.234 844.344 693.984 844.781C694.745 845.208 695.276 845.75 695.578 846.406C695.88 847.062 696.031 847.844 696.031 848.75H693.031C693.031 848.188 692.922 847.729 692.703 847.375C692.495 847.021 692.125 846.745 691.594 846.547C691.062 846.339 690.344 846.198 689.438 846.125C688.542 846.042 687.406 846 686.031 846C684.531 846 683.271 846.021 682.25 846.062C681.229 846.104 680.406 846.208 679.781 846.375C679.156 846.542 678.708 846.797 678.438 847.141C678.167 847.484 678.031 847.958 678.031 848.562C678.031 848.917 678.052 849.266 678.094 849.609C678.146 849.943 678.255 850.219 678.422 850.438C678.589 850.656 678.833 850.823 679.156 850.938C679.479 851.052 679.917 851.141 680.469 851.203C681.031 851.255 681.724 851.286 682.547 851.297C683.37 851.297 684.365 851.297 685.531 851.297C686.948 851.297 688.188 851.328 689.25 851.391C690.323 851.453 691.25 851.562 692.031 851.719C692.812 851.875 693.458 852.115 693.969 852.438C694.479 852.76 694.885 853.115 695.188 853.5C695.5 853.875 695.719 854.323 695.844 854.844C695.969 855.354 696.031 855.948 696.031 856.625C696.031 857.302 695.969 857.911 695.844 858.453C695.719 858.984 695.5 859.458 695.188 859.875C694.875 860.281 694.448 860.635 693.906 860.938C693.375 861.229 692.703 861.469 691.891 861.656C691.078 861.833 690.104 861.964 688.969 862.047C687.844 862.141 686.531 862.188 685.031 862.188C683.156 862.188 681.578 862.094 680.297 861.906C679.026 861.719 678 861.422 677.219 861.016C676.438 860.599 675.875 860.062 675.531 859.406C675.198 858.75 675.031 857.948 675.031 857H678.031C678.031 857.625 678.135 858.135 678.344 858.531C678.562 858.917 678.938 859.219 679.469 859.438C680 859.656 680.714 859.807 681.609 859.891C682.516 859.964 683.656 860 685.031 860C686.281 860 687.344 859.974 688.219 859.922C689.104 859.859 689.844 859.766 690.438 859.641C691.031 859.516 691.5 859.365 691.844 859.188C692.188 859.01 692.448 858.797 692.625 858.547C692.802 858.297 692.911 858.021 692.953 857.719C693.005 857.406 693.031 857.062 693.031 856.688C693.031 856.344 693.005 856.042 692.953 855.781C692.911 855.51 692.807 855.245 692.641 854.984C692.474 854.714 692.229 854.51 691.906 854.375C691.583 854.24 691.141 854.13 690.578 854.047C690.026 853.953 689.339 853.891 688.516 853.859C687.693 853.818 686.698 853.797 685.531 853.797ZM717.953 859.531C717.922 859.656 717.688 859.969 717.25 860.469C716.938 860.844 716.521 861.177 716 861.469C715.479 861.75 714.781 861.969 713.906 862.125C713.042 862.292 711.901 862.375 710.484 862.375C708.599 862.375 706.99 862.276 705.656 862.078C704.323 861.891 703.234 861.599 702.391 861.203C701.547 860.797 700.927 860.281 700.531 859.656C700.146 859.031 699.953 858.286 699.953 857.422C699.953 856.516 700.057 855.75 700.266 855.125C700.484 854.49 700.797 853.958 701.203 853.531C701.62 853.104 702.12 852.771 702.703 852.531C703.286 852.292 703.948 852.109 704.688 851.984C705.438 851.859 706.255 851.781 707.141 851.75C708.026 851.719 708.969 851.703 709.969 851.703C711.396 851.703 712.589 851.766 713.547 851.891C714.505 852.005 715.286 852.156 715.891 852.344C716.505 852.521 716.969 852.714 717.281 852.922C717.594 853.13 717.818 853.323 717.953 853.5C717.953 852.333 717.901 851.339 717.797 850.516C717.703 849.693 717.542 849.005 717.312 848.453C717.094 847.901 716.807 847.464 716.453 847.141C716.099 846.807 715.661 846.557 715.141 846.391C714.63 846.224 714.031 846.12 713.344 846.078C712.656 846.026 711.87 846 710.984 846C709.609 846 708.469 846.036 707.562 846.109C706.656 846.172 705.938 846.302 705.406 846.5C704.875 846.698 704.5 846.974 704.281 847.328C704.062 847.672 703.953 848.125 703.953 848.688H700.953C700.953 847.74 701.12 846.938 701.453 846.281C701.797 845.625 702.359 845.094 703.141 844.688C703.932 844.271 704.969 843.969 706.25 843.781C707.531 843.594 709.109 843.5 710.984 843.5C712.818 843.5 714.37 843.651 715.641 843.953C716.911 844.255 717.938 844.786 718.719 845.547C719.51 846.307 720.078 847.333 720.422 848.625C720.776 849.906 720.953 851.531 720.953 853.5V862H717.953V859.531ZM710.984 860C712.307 860 713.411 859.938 714.297 859.812C715.193 859.688 715.911 859.5 716.453 859.25C716.995 859 717.38 858.688 717.609 858.312C717.839 857.938 717.953 857.5 717.953 857C717.953 856.5 717.818 856.078 717.547 855.734C717.286 855.38 716.844 855.094 716.219 854.875C715.604 854.656 714.786 854.5 713.766 854.406C712.745 854.302 711.484 854.25 709.984 854.25C708.484 854.25 707.271 854.276 706.344 854.328C705.427 854.38 704.719 854.5 704.219 854.688C703.719 854.875 703.38 855.151 703.203 855.516C703.036 855.88 702.953 856.375 702.953 857C702.953 857.625 703.042 858.135 703.219 858.531C703.406 858.917 703.781 859.219 704.344 859.438C704.906 859.656 705.714 859.807 706.766 859.891C707.828 859.964 709.234 860 710.984 860ZM740.469 849.859C740.469 849.109 740.411 848.49 740.297 848C740.193 847.5 739.938 847.104 739.531 846.812C739.125 846.51 738.521 846.302 737.719 846.188C736.927 846.062 735.844 846 734.469 846C733.125 846 732.031 846.12 731.188 846.359C730.344 846.589 729.682 846.917 729.203 847.344C728.724 847.771 728.396 848.281 728.219 848.875C728.052 849.469 727.969 850.13 727.969 850.859V862H724.969V844H727.969V846.859C728.073 846.536 728.266 846.182 728.547 845.797C728.828 845.401 729.255 845.036 729.828 844.703C730.401 844.359 731.141 844.073 732.047 843.844C732.964 843.615 734.104 843.5 735.469 843.5C737.031 843.5 738.302 843.641 739.281 843.922C740.26 844.193 741.021 844.599 741.562 845.141C742.115 845.672 742.484 846.333 742.672 847.125C742.87 847.917 742.969 848.828 742.969 849.859H740.469ZM745.969 838H748.969V862H745.969V838Z" fill="white"/>
</g>
<defs>
<filter id="filter0_d_17_15" x="-4" y="0" width="1448" height="1032" filterUnits="userSpaceOnUse" color-interpolation-filters="sRGB">
<feFlood flood-opacity="0" result="BackgroundImageFix"/>
<feColorMatrix in="SourceAlpha" type="matrix" values="0 0 0 0 0 0 0 0 0 0 0 0 0 0 0 0 0 0 127 0" result="hardAlpha"/>
<feOffset dy="4"/>
<feGaussianBlur stdDeviation="2"/>
<feComposite in2="hardAlpha" operator="out"/>
<feColorMatrix type="matrix" values="0 0 0 0 0 0 0 0 0 0 0 0 0 0 0 0 0 0 0.25 0"/>
<feBlend mode="normal" in2="BackgroundImageFix" result="effect1_dropShadow_17_15"/>
<feBlend mode="normal" in="SourceGraphic" in2="effect1_dropShadow_17_15" result="shape"/>
</filter>
<clipPath id="clip0_17_15">
<rect width="500" height="500" fill="white" transform="translate(469 181)"/>
</clipPath>
</defs>
</svg>
